<svg width="120" height="120" viewBox="0 0 120 120" fill="none" xmlns="http://www.w3.org/2000/svg">
<path d="M60 106.571C83.196 106.571 102 103.31 102 99.2857C102 95.2619 83.196 92 60 92C36.804 92 18 95.2619 18 99.2857C18 103.31 36.804 106.571 60 106.571Z" fill="#F8F8F8"/>
<path fill-rule="evenodd" clip-rule="evenodd" d="M69.6136 48H86.3864C87.8299 48 89 49.1701 89 50.6136V99H67V50.6136C67 49.1701 68.1701 48 69.6136 48Z" fill="#EEEEEE" stroke="#363636"/>
<path d="M84 63.7878H76" stroke="#363636" stroke-linecap="round"/>
<path d="M84 77.606H76" stroke="#363636" stroke-linecap="round"/>
<path d="M84 91.4243H76" stroke="#363636" stroke-linecap="round"/>
<path d="M84 59.1818H76" stroke="#363636" stroke-linecap="round"/>
<path d="M84 73H76" stroke="#363636" stroke-linecap="round"/>
<path d="M84 86.8182H76" stroke="#363636" stroke-linecap="round"/>
<path d="M84 54.5757H76" stroke="#363636" stroke-linecap="round"/>
<path d="M84 68.3939H76" stroke="#363636" stroke-linecap="round"/>
<path d="M84 82.2121H76" stroke="#363636" stroke-linecap="round"/>
<path fill-rule="evenodd" clip-rule="evenodd" d="M52.6136 28H70.3864C71.8298 28 73 29.1701 73 30.6136V99H50V30.6136C50 29.1701 51.1702 28 52.6136 28Z" fill="#EEEEEE" stroke="#363636"/>
<path fill-rule="evenodd" clip-rule="evenodd" d="M70.3864 28C71.8298 28 73 29.1701 73 30.6136V30.84H55.2452C53.8572 30.84 52.722 31.9219 52.6367 33.2883L52.6316 33.4536L52.631 99H50V30.6136C50 29.1701 51.1702 28 52.6136 28H70.3864Z" fill="#363636" fill-opacity="0.1"/>
<path d="M67.3884 35V36" stroke="#363636" stroke-width="1.089" stroke-linecap="round"/>
<path d="M62.5 35V36" stroke="#363636" stroke-width="1.089" stroke-linecap="round"/>
<path d="M57.6111 35V36" stroke="#363636" stroke-width="1.089" stroke-linecap="round"/>
<path d="M67.3884 51V52" stroke="#363636" stroke-width="1.089" stroke-linecap="round"/>
<path d="M62.5 51V52" stroke="#363636" stroke-width="1.089" stroke-linecap="round"/>
<path d="M57.6111 51V52" stroke="#363636" stroke-width="1.089" stroke-linecap="round"/>
<path d="M67.3884 67V68" stroke="#363636" stroke-linecap="round"/>
<path d="M62.5 67V68" stroke="#363636" stroke-linecap="round"/>
<path d="M57.6111 67V68" stroke="#363636" stroke-linecap="round"/>
<path d="M67.3884 83V84" stroke="#363636" stroke-linecap="round"/>
<path d="M62.5 83V84" stroke="#363636" stroke-linecap="round"/>
<path d="M57.6111 83V84" stroke="#363636" stroke-linecap="round"/>
<path d="M67.3884 43V44" stroke="#363636" stroke-width="1.089" stroke-linecap="round"/>
<path d="M62.5 43V44" stroke="#363636" stroke-width="1.089" stroke-linecap="round"/>
<path d="M57.6111 43V44" stroke="#363636" stroke-width="1.089" stroke-linecap="round"/>
<path d="M67.3884 59V60" stroke="#363636" stroke-width="1.089" stroke-linecap="round"/>
<path d="M62.5 59V60" stroke="#363636" stroke-width="1.089" stroke-linecap="round"/>
<path d="M57.6111 59V60" stroke="#363636" stroke-width="1.089" stroke-linecap="round"/>
<path d="M67.3884 75V76" stroke="#363636" stroke-linecap="round"/>
<path d="M62.5 75V76" stroke="#363636" stroke-linecap="round"/>
<path d="M57.6111 75V76" stroke="#363636" stroke-linecap="round"/>
<path fill-rule="evenodd" clip-rule="evenodd" d="M60.089 90H65.911C66.5124 90 67 90.4876 67 91.089V99H59V91.089C59 90.4876 59.4876 90 60.089 90Z" fill="white" stroke="#363636"/>
<path fill-rule="evenodd" clip-rule="evenodd" d="M32.6136 63H50.3864C51.8299 63 53 64.1701 53 65.6136V99H30V65.6136C30 64.1701 31.1701 63 32.6136 63Z" fill="white" stroke="#363636"/>
<path fill-rule="evenodd" clip-rule="evenodd" d="M50.421 63C51.768 63 52.8771 64.0191 53.0192 65.3284C52.9617 65.3245 52.9039 65.3226 52.8456 65.3226H35.0383C33.5948 65.3226 32.4247 66.4927 32.4247 67.9362L32.424 99H30V65.6136C30 64.1701 31.1701 63 32.6136 63H50.421Z" fill="#363636" fill-opacity="0.1"/>
<path d="M47.3884 68V79.6667" stroke="#363636" stroke-linecap="round"/>
<path d="M42.5 68V79.6667" stroke="#363636" stroke-linecap="round"/>
<path d="M37.6111 68V79.6667" stroke="#363636" stroke-linecap="round"/>
<path d="M47.3884 84.3333V95.9999" stroke="#363636" stroke-linecap="round"/>
<path d="M42.5 84.3333V96" stroke="#363636" stroke-linecap="round"/>
<path d="M37.6111 84.3333V96" stroke="#363636" stroke-linecap="round"/>
<path d="M99.0889 33.5071C100.692 33.5071 101.992 32.2073 101.992 30.6038C101.992 29.2264 101.033 28.0739 99.7458 27.7761C99.7195 24.8617 97.3492 22.5071 94.4286 22.5071C92.4235 22.5071 90.6778 23.6171 89.7718 25.2559C89.4961 25.1366 89.1922 25.0702 88.8728 25.0702C87.7219 25.0702 86.7721 25.9284 86.6267 27.0396C85.1291 27.3365 84 28.6572 84 30.2419C84 32.0453 85.4619 33.5071 87.2652 33.5071C87.7675 33.5071 98.7448 33.5071 99.0889 33.5071Z" fill="black" fill-opacity="0.1"/>
<path d="M36.3455 47.5071C37.6574 47.5071 38.7209 46.4436 38.7209 45.1317C38.7209 44.0047 37.9358 43.0617 36.883 42.8181C36.8614 40.4336 34.9221 38.5071 32.5325 38.5071C30.8919 38.5071 29.4637 39.4153 28.7224 40.7561C28.4968 40.6585 28.2482 40.6042 27.9868 40.6042C27.0452 40.6042 26.2681 41.3063 26.1491 42.2155C24.9238 42.4584 24 43.539 24 44.8356C24 46.3111 25.1961 47.5071 26.6715 47.5071C27.0825 47.5071 36.0639 47.5071 36.3455 47.5071Z" fill="black" fill-opacity="0.1"/>
<path d="M92.8918 98.5H27.5C27.2239 98.5 27 98.7239 27 99C27 99.2761 27.2239 99.5 27.5 99.5H92.8918C93.1679 99.5 93.3918 99.2761 93.3918 99C93.3918 98.7239 93.1679 98.5 92.8918 98.5Z" fill="#363636"/>
</svg>
