<svg width="120" height="120" viewBox="0 0 120 120" fill="none" xmlns="http://www.w3.org/2000/svg">
<path d="M60 106.571C83.196 106.571 102 103.309 102 99.2857C102 95.2619 83.196 91.9999 60 91.9999C36.804 91.9999 18 95.2619 18 99.2857C18 103.309 36.804 106.571 60 106.571Z" fill="#F8F8F8"/>
<path fill-rule="evenodd" clip-rule="evenodd" d="M69.6136 47.9999H86.3864C87.8299 47.9999 89 49.1701 89 50.6135V98.9999H67V50.6135C67 49.1701 68.1701 47.9999 69.6136 47.9999Z" fill="#EEEEEE" stroke="#363636"/>
<path d="M84 63.7878H76" stroke="#363636" stroke-linecap="round"/>
<path d="M84 77.606H76" stroke="#363636" stroke-linecap="round"/>
<path d="M84 91.4242H76" stroke="#363636" stroke-linecap="round"/>
<path d="M84 59.1818H76" stroke="#363636" stroke-linecap="round"/>
<path d="M84 72.9999H76" stroke="#363636" stroke-linecap="round"/>
<path d="M84 86.8181H76" stroke="#363636" stroke-linecap="round"/>
<path d="M84 54.5757H76" stroke="#363636" stroke-linecap="round"/>
<path d="M84 68.3939H76" stroke="#363636" stroke-linecap="round"/>
<path d="M84 82.212H76" stroke="#363636" stroke-linecap="round"/>
<path fill-rule="evenodd" clip-rule="evenodd" d="M52.6136 28H70.3864C71.8298 28 73 29.1701 73 30.6136V99H50V30.6136C50 29.1701 51.1702 28 52.6136 28Z" fill="#EEEEEE" stroke="#363636"/>
<path fill-rule="evenodd" clip-rule="evenodd" d="M70.3864 28C71.8298 28 73 29.1701 73 30.6136V30.84H55.2452C53.8572 30.84 52.722 31.9219 52.6367 33.2883L52.6316 33.4536L52.631 99H50V30.6136C50 29.1701 51.1702 28 52.6136 28H70.3864Z" fill="#363636" fill-opacity="0.1"/>
<path d="M67.3884 35V36" stroke="#363636" stroke-width="1.089" stroke-linecap="round"/>
<path d="M62.5 35V36" stroke="#363636" stroke-width="1.089" stroke-linecap="round"/>
<path d="M57.6111 35V36" stroke="#363636" stroke-width="1.089" stroke-linecap="round"/>
<path d="M67.3884 50.9999V51.9999" stroke="#363636" stroke-width="1.089" stroke-linecap="round"/>
<path d="M62.5 50.9999V51.9999" stroke="#363636" stroke-width="1.089" stroke-linecap="round"/>
<path d="M57.6111 50.9999V51.9999" stroke="#363636" stroke-width="1.089" stroke-linecap="round"/>
<path d="M67.3884 66.9999V67.9999" stroke="#363636" stroke-linecap="round"/>
<path d="M62.5 66.9999V67.9999" stroke="#363636" stroke-linecap="round"/>
<path d="M57.6111 66.9999V67.9999" stroke="#363636" stroke-linecap="round"/>
<path d="M67.3884 82.9999V83.9999" stroke="#363636" stroke-linecap="round"/>
<path d="M62.5 82.9999V83.9999" stroke="#363636" stroke-linecap="round"/>
<path d="M57.6111 82.9999V83.9999" stroke="#363636" stroke-linecap="round"/>
<path d="M67.3884 43V44" stroke="#363636" stroke-width="1.089" stroke-linecap="round"/>
<path d="M62.5 43V44" stroke="#363636" stroke-width="1.089" stroke-linecap="round"/>
<path d="M57.6111 43V44" stroke="#363636" stroke-width="1.089" stroke-linecap="round"/>
<path d="M67.3884 58.9999V59.9999" stroke="#363636" stroke-width="1.089" stroke-linecap="round"/>
<path d="M62.5 58.9999V59.9999" stroke="#363636" stroke-width="1.089" stroke-linecap="round"/>
<path d="M57.6111 58.9999V59.9999" stroke="#363636" stroke-width="1.089" stroke-linecap="round"/>
<path d="M67.3884 74.9999V75.9999" stroke="#363636" stroke-linecap="round"/>
<path d="M62.5 74.9999V75.9999" stroke="#363636" stroke-linecap="round"/>
<path d="M57.6111 74.9999V75.9999" stroke="#363636" stroke-linecap="round"/>
<path fill-rule="evenodd" clip-rule="evenodd" d="M60.089 89.9999H65.911C66.5124 89.9999 67 90.4875 67 91.0889V98.9999H59V91.0889C59 90.4875 59.4876 89.9999 60.089 89.9999Z" fill="url(#paint0_linear_3180_66016)" stroke="#363636"/>
<path fill-rule="evenodd" clip-rule="evenodd" d="M32.6136 62.9999H50.3864C51.8299 62.9999 53 64.1701 53 65.6135V98.9999H30V65.6135C30 64.1701 31.1701 62.9999 32.6136 62.9999Z" fill="white" stroke="#363636"/>
<path fill-rule="evenodd" clip-rule="evenodd" d="M50.421 62.9999C51.768 62.9999 52.8771 64.019 53.0192 65.3283C52.9617 65.3244 52.9039 65.3225 52.8456 65.3225H35.0383C33.5948 65.3225 32.4247 66.4927 32.4247 67.9361L32.424 98.9999H30V65.6135C30 64.1701 31.1701 62.9999 32.6136 62.9999H50.421Z" fill="#363636" fill-opacity="0.1"/>
<path d="M47.3884 68V79.6666" stroke="#363636" stroke-linecap="round"/>
<path d="M42.5 68V79.6666" stroke="#363636" stroke-linecap="round"/>
<path d="M37.6111 68V79.6666" stroke="#363636" stroke-linecap="round"/>
<path d="M47.3884 84.3332V95.9999" stroke="#363636" stroke-linecap="round"/>
<path d="M42.5 84.3333V95.9999" stroke="#363636" stroke-linecap="round"/>
<path d="M37.6111 84.3333V95.9999" stroke="#363636" stroke-linecap="round"/>
<path d="M99.0889 33.5071C100.692 33.5071 101.992 32.2072 101.992 30.6038C101.992 29.2264 101.033 28.0738 99.7458 27.776C99.7195 24.8616 97.3492 22.5071 94.4286 22.5071C92.4235 22.5071 90.6778 23.617 89.7718 25.2558C89.4961 25.1365 89.1922 25.0701 88.8728 25.0701C87.7219 25.0701 86.7721 25.9283 86.6267 27.0395C85.1291 27.3364 84 28.6571 84 30.2418C84 32.0452 85.4619 33.5071 87.2652 33.5071C87.7675 33.5071 98.7448 33.5071 99.0889 33.5071Z" fill="black" fill-opacity="0.1"/>
<path d="M36.3455 47.5071C37.6574 47.5071 38.7209 46.4435 38.7209 45.1316C38.7209 44.0047 37.9358 43.0617 36.883 42.818C36.8614 40.4335 34.9221 38.5071 32.5325 38.5071C30.8919 38.5071 29.4637 39.4152 28.7224 40.7561C28.4968 40.6585 28.2482 40.6041 27.9868 40.6041C27.0452 40.6041 26.2681 41.3063 26.1491 42.2154C24.9238 42.4584 24 43.5389 24 44.8355C24 46.311 25.1961 47.5071 26.6715 47.5071C27.0825 47.5071 36.0639 47.5071 36.3455 47.5071Z" fill="black" fill-opacity="0.1"/>
<path d="M92.8918 98.4999H27.5C27.2239 98.4999 27 98.7238 27 98.9999C27 99.2761 27.2239 99.4999 27.5 99.4999H92.8918C93.1679 99.4999 93.3918 99.2761 93.3918 98.9999C93.3918 98.7238 93.1679 98.4999 92.8918 98.4999Z" fill="#363636"/>
<defs>
<linearGradient id="paint0_linear_3180_66016" x1="59.8395" y1="98.9999" x2="67.0984" y2="90.8337" gradientUnits="userSpaceOnUse">
<stop stop-color="#FF7100"/>
<stop offset="1" stop-color="#F6DA35"/>
</linearGradient>
</defs>
</svg>
