<svg width="120" height="120" viewBox="0 0 120 120" fill="none" xmlns="http://www.w3.org/2000/svg">
<path d="M60 101C85.9574 101 107 97.6421 107 93.5C107 89.3579 85.9574 86 60 86C34.0426 86 13 89.3579 13 93.5C13 97.6421 34.0426 101 60 101Z" fill="#F8F8F8"/>
<path fill-rule="evenodd" clip-rule="evenodd" d="M50.7652 45H67.6033C69.2599 45 70.6028 46.3429 70.6028 47.9995V54.7874H47.7656V47.9995C47.7656 46.3429 49.1086 45 50.7652 45Z" fill="white" stroke="#363636"/>
<path d="M88.9825 56H31.0175C29.351 56 28 57.1592 28 58.5891V90.4109C28 91.8408 29.351 93 31.0175 93H88.9825C90.649 93 92 91.8408 92 90.4109V58.5891C92 57.1592 90.649 56 88.9825 56Z" fill="white" stroke="#363636"/>
<path opacity="0.1" fill-rule="evenodd" clip-rule="evenodd" d="M32 56V86.4109C32 87.8408 33.351 89 35.0175 89H92V90.4109C92 91.8408 90.649 93 88.9825 93H31.0175C29.351 93 28 91.8408 28 90.4109V58.5891C28 57.1592 29.351 56 31.0175 56H32Z" fill="#363636"/>
<path d="M91.0921 52H28.9079C27.3019 52 26 53.0913 26 54.4375V68.5625C26 69.9087 27.3019 71 28.9079 71H91.0921C92.6981 71 94 69.9087 94 68.5625V54.4375C94 53.0913 92.6981 52 91.0921 52Z" fill="#F8F8F8" stroke="#363636"/>
<rect x="52.5" y="68.5" width="15" height="5" rx="1.5" fill="url(#paint0_linear_5732_28323)" stroke="#363636"/>
<defs>
<linearGradient id="paint0_linear_5732_28323" x1="60" y1="77" x2="63.9452" y2="66.4795" gradientUnits="userSpaceOnUse">
<stop stop-color="#FF7100"/>
<stop offset="1" stop-color="#F6DA35"/>
</linearGradient>
</defs>
</svg>
