<?xml version="1.0" encoding="UTF-8"?>
<svg width="120px" height="78px" viewBox="0 0 120 78" version="1.1" xmlns="http://www.w3.org/2000/svg" xmlns:xlink="http://www.w3.org/1999/xlink">
    <title>spot_120/kite</title>
    <defs>
        <linearGradient x1="24.5569878%" y1="36.5028742%" x2="100%" y2="99.5265784%" id="linearGradient-1">
            <stop stop-color="#999999" offset="0%"></stop>
            <stop stop-color="#D3D3D3" offset="100%"></stop>
        </linearGradient>
        <linearGradient x1="26.0547006%" y1="36.373856%" x2="97.0567306%" y2="100%" id="linearGradient-2">
            <stop stop-color="#999999" offset="0%"></stop>
            <stop stop-color="#D3D3D3" offset="100%"></stop>
        </linearGradient>
    </defs>
    <g id="spot_120/kite" stroke="none" stroke-width="1" fill="none" fill-rule="evenodd">
        <g id="Group-2" transform="translate(31.000000, 9.000000)">
            <g id="Group" transform="translate(2.901831, 0.000000)">
                <path d="M13.4272932,29.0379762 C0.325087947,39.3011927 -3.18837631,48.1774879 2.88690046,55.6668621 C8.96217722,63.1562362 16.3417267,60.9371624 25.0255489,49.0096406 C31.9292725,37.9142715 39.2472195,34.0308923 46.9793899,37.3595031 C54.7115603,40.6881138 56.9207519,47.2066432 53.6069646,56.9150911" id="Path-2" stroke="#363636" stroke-linecap="round" stroke-linejoin="round"></path>
                <path d="M41.871063,0.0474659533 C41.9288904,4.68407053 42.0099545,14.2259642 41.824595,21.3784566 L31.2534882,10.7300037 L41.871063,0.0474659533 Z" id="Path" stroke="#363636" fill="#FFFFFF" stroke-linejoin="round"></path>
                <path d="M41.8342978,21.3733561 C30.1565522,25.0047472 20.2660189,27.8729456 12.1626977,29.9779513 L31.2688592,10.7319948 L41.8342978,21.3733561 Z" id="Path" stroke="#363636" fill="#FFFFFF" stroke-linejoin="round"></path>
                <path d="M31.2804512,10.763429 L20.7093444,0.11550862 C27.8108092,-0.0706798656 37.2948937,0.0104500629 41.8974233,0.0687005368 L31.2804512,10.763429 Z" id="Path" stroke="#363636" fill="#FFFFFF" stroke-linejoin="round"></path>
                <path d="M31.2951798,10.7420666 L12.1890183,29.9880231 C15.3235919,17.7434406 19.3789402,5.02386801 20.7089036,0.153462676 L31.2951798,10.7420666 Z" id="Mask" stroke="#363636" fill="#FFFFFF" stroke-linejoin="round"></path>
                <path d="M12.8386587,28.8627303 C12.8386587,28.8627303 17.1189673,21.0959719 25.6795845,5.56245512 L20.7089036,0.153462676 C15.4620736,19.2929744 12.8386587,28.8627303 12.8386587,28.8627303 Z" id="Path-4" fill="#363636" opacity="0.099999994"></path>
                <polygon id="Path-5" fill="#363636" opacity="0.099999994" points="25.6795845 5.56245512 41.8342978 0.153462676 21.123127 0.153462676"></polygon>
            </g>
            <g id="Group-4" transform="translate(0.000000, 24.964581)" stroke="#363636" stroke-linejoin="round">
                <path d="M6.66043931,9.4054796 L1.63676551,6.34551621 C0.979897006,5.94541189 0.771748505,5.08856612 1.17185282,4.43169761 C1.24783761,4.30695011 1.34297496,4.19493337 1.45377574,4.09975556 L4.8810357,1.15574117 C5.46446656,0.654574391 6.34370666,0.721262601 6.84487344,1.30469346 C6.91741718,1.3891449 6.97957239,1.48199062 7.03000797,1.58124229 L9.58097615,6.60126609 C9.85052263,7.13170382 9.7533024,7.77479613 9.33900555,8.20185304 L8.38445121,9.18580701 C7.93158162,9.65262468 7.21590119,9.74381626 6.66043931,9.4054796 Z" id="Path-3" fill="url(#linearGradient-1)"></path>
                <path d="M15.6831554,18.5610348 L10.6594816,15.5010715 C10.0026131,15.1009671 9.79446464,14.2441214 10.194569,13.5872529 C10.2705537,13.4625054 10.3656911,13.3504886 10.4764919,13.2553108 L13.9037518,10.3112964 C14.4871827,9.81012964 15.3664228,9.87681785 15.8675896,10.4602487 C15.9401333,10.5447002 16.0022885,10.6375459 16.0527241,10.7367975 L18.6036923,15.7568213 C18.8732388,16.2872591 18.7760185,16.9303514 18.3617217,17.3574083 L17.4071673,18.3413623 C16.9542978,18.8081799 16.2386173,18.8993715 15.6831554,18.5610348 Z" id="Path-3-Copy-2" fill="url(#linearGradient-1)" transform="translate(14.038497, 14.147533) scale(-1, -1) translate(-14.038497, -14.147533) "></path>
                <ellipse id="Oval" fill="url(#linearGradient-2)" cx="9.76393328" cy="9.54668719" rx="2.21239952" ry="2.28053994"></ellipse>
            </g>
        </g>
    </g>
</svg>