<?xml version="1.0" encoding="UTF-8"?>
<svg width="120px" height="78px" viewBox="0 0 120 78" version="1.1" xmlns="http://www.w3.org/2000/svg" xmlns:xlink="http://www.w3.org/1999/xlink">
    <title>spot_120/plane</title>
    <defs>
        <linearGradient x1="7.01847967%" y1="100%" x2="92.2814621%" y2="0.814371176%" id="linearGradient-1">
            <stop stop-color="#EB6956" offset="0%"></stop>
            <stop stop-color="#F3DAD6" offset="100%"></stop>
        </linearGradient>
        <path d="M5.4094548,-1.28612502e-09 C5.36201316,0.162524431 5.32084821,0.329588429 5.28632482,0.500800121 L5.28632482,0.500800121 L5.16643701,1.09413109 C4.12137396,6.27296769 3.92470053,11.659033 4.58160698,17.1004488 L4.58160698,17.1004488 L5.52984838,24.9559995 C5.82876945,27.4311887 6.30706879,29.8925059 6.95053797,32.2707581 L6.95053797,32.2707581 L10.976,44.212 L10.151217,49.4039729 C9.83481,51.3991638 8.35226434,52.8481787 6.62602655,52.8481787 C4.89188319,52.8481787 3.40813073,51.3909638 3.09773724,49.3844839 L0.539317635,32.8695869 C0.181766836,30.562099 0,28.1960106 0,25.8379272 L0,18.3540885 C0,13.1701432 0.849731577,8.13819002 2.52559051,3.40016337 L2.71774811,2.85735364 C3.19091419,1.51894501 4.1139016,0.521563463 5.22875536,0.0679610319 Z" id="path-2"></path>
    </defs>
    <g id="spot_120/plane" stroke="none" stroke-width="1" fill="none" fill-rule="evenodd">
        <g id="Group-3" transform="translate(6.999295, -2.949042)">
            <path d="M85.6038638,19.7096109 C87.1865696,19.7096109 88.6194064,20.3521619 89.6565893,21.3909209 C90.6940468,22.4299549 91.3356626,23.8653848 91.3356626,25.4508792 L91.3356626,25.4508792 L91.3356626,26.8665556 L92.2247556,25.7648963 C92.8325396,25.0118018 93.8913005,24.3905621 95.0950574,24.3905621 C96.0324394,24.3905621 96.881045,24.7711466 97.4953277,25.3863628 C98.1098851,26.0018539 98.4899317,26.852165 98.4899317,27.7913549 C98.4899317,28.1695584 98.4284289,28.5333739 98.3146782,28.8732354 C99.1867299,29.7779637 99.7185325,30.2211824 100.121451,30.7657423 C101.148172,30.7360635 101.614856,30.6318305 102.105831,30.6318305 C103.043213,30.6318305 103.891819,31.012415 104.506101,31.6276312 C105.120659,32.2431223 105.500705,33.0934334 105.500705,34.0326233 C105.500705,34.9718132 105.120659,35.8221243 104.506101,36.4376154 C103.891819,37.0528316 103.043213,37.433416 102.105831,37.433416 C101.262461,37.433416 100.490911,37.1253961 99.897288,36.6154872 C98.5738299,37.1220463 97.7060709,37.433416 96.7657535,37.433416 C96.1940326,37.433416 95.649122,37.3184228 95.1529554,37.1099969 C94.6452846,37.0480163 94.5789071,37.204498 94.5065993,37.3587205 C93.946991,38.5522875 93.0561791,39.5593504 91.9527635,40.2613756 C90.8848103,40.9408385 89.6175227,41.3342088 88.2585281,41.3342088 C86.7025827,41.3342088 85.266884,40.818471 84.1127253,39.9481968 C82.7879988,40.3196343 81.886328,40.5540502 80.9300147,40.5540502 C79.7892423,40.5540502 78.7262563,40.2203731 77.833258,39.6448913 C76.9109552,39.0505245 76.1697807,38.1985992 75.7112041,37.1905181 C75.6263126,37.0039025 75.5518186,36.813503 75.4877222,36.6203166 C75.3355477,36.7506477 75.1730608,36.8662905 75.0025564,36.9665954 C74.4983065,37.2632371 73.9108665,37.433416 73.2837615,37.433416 C72.3463796,37.433416 71.4977739,37.0528316 70.8834912,36.4376154 C70.2689338,35.8221243 69.8888872,34.9718132 69.8888872,34.0326233 C69.8888872,33.0934334 70.2689338,32.2431223 70.8834912,31.6276312 C71.4977739,31.012415 72.3463796,30.6318305 73.2837615,30.6318305 C74.1587435,30.6318305 74.9564054,30.9633969 75.5582975,31.507938 C75.7056847,31.6412814 75.8415366,31.7875797 75.9640676,31.9450932 C76.0660518,31.7683271 76.177469,31.5968699 76.2978907,31.4315524 C77.2207112,30.1646848 78.6488734,29.2905627 80.2857284,29.1073359 C80.5811496,29.0742669 80.8749171,29.0646488 81.1648274,29.0771226 C80.9773294,28.8489585 80.8090498,28.6078732 80.6608023,28.3564683 C80.1592768,27.5059586 79.8720649,26.511988 79.8720649,25.4508792 C79.8720649,23.8653848 80.5136808,22.4299549 81.5511383,21.3909209 C82.5883212,20.3521619 84.021158,19.7096109 85.6038638,19.7096109 Z" id="Combined-Shape-Copy" stroke="#EB6956" opacity="0.199999988" transform="translate(87.694796, 30.521910) scale(-1, 1) translate(-87.694796, -30.521910) "></path>
            <g id="noun-plane-1079361" transform="translate(40.627686, 37.319032) rotate(-315.000000) translate(-40.627686, -37.319032) translate(14.766075, 10.403562)">
                <path d="M0.549144772,31.1206938 L19.1892849,16.1726822 L19.1892849,16.1726822 C19.2271871,16.4229241 19.2655372,16.700319 19.3046752,17.0061448 L19.3341713,17.2407565 C19.5353163,18.8682161 19.7502349,21.176786 19.9217646,23.4639925 C20.0828195,25.6115264 20.2056619,27.74022 20.2421718,29.2677068 C20.2579871,29.9293827 20.2578907,30.4746795 20.2362328,30.8531507 L20.2380243,30.8063302 L0.519863348,38.7710038 C0.490178204,38.7827847 0.459446709,38.7905361 0.428453413,38.7943947 L0.381865189,38.7972802 C0.305643459,38.7972802 0.230678622,38.7740467 0.164180671,38.7277888 C0.0607430657,38.6563773 0,38.5367184 0,38.4098622 L0,32.2649768 C8.33684208e-16,31.8199978 0.202000917,31.3990775 0.549144772,31.1206938 Z" id="Path" stroke="#363636" fill="#FFFFFF"></path>
                <path d="M51.6355936,31.0070705 L51.7232221,37.4831726 L51.7232221,37.4831726 C51.7232221,37.5597097 51.6849322,37.6315281 51.6214479,37.6739801 C51.5808283,37.7010259 51.5334714,37.7152804 51.4871894,37.7152804 C51.4728879,37.7152804 51.4585274,37.7139102 51.4443005,37.711317 L51.3791279,37.6911275 L31.4956131,30.1941619 L31.4940188,30.1697089 C31.4715686,29.8289166 31.4657473,29.3545147 31.4725536,28.7834935 L31.47569,28.5649037 C31.4999327,27.1089621 31.598648,25.1201889 31.7334624,23.1054175 L31.7609575,22.7013534 L31.7997041,22.1534564 C31.9496165,20.0786585 32.1316804,18.0595276 32.3048517,16.6509995 L51.3322772,30.422894 C51.5199968,30.5587639 51.6324583,30.7753607 51.6355936,31.0070705 Z" id="Path" stroke="#363636" fill="#FFFFFF"></path>
                <path d="M36.5446919,53.1093376 L28.0295362,49.7671585 C27.4592046,49.543404 29.4919847,41.9149212 29.9867935,42.2753435 L37.5999959,47.8328787 C37.8865713,48.0425144 38.0561789,48.3755248 38.0561789,48.7315093 L38.0561789,52.0736884 C38.0561789,52.4405612 37.8753149,52.7844497 37.573069,52.9920729 C37.3857742,53.1198752 37.1679308,53.1851851 36.948081,53.1851851 C36.8119751,53.1851851 36.6749226,53.1601355 36.5446919,53.1093376 Z" id="Path" stroke="#363636" fill="url(#linearGradient-1)" stroke-linejoin="round"></path>
                <path d="M14.1105476,52.9767326 C13.8066218,52.7701411 13.6249003,52.4272967 13.6249003,52.0603338 L13.6249003,48.7664757 C13.6249003,48.4135785 13.7925427,48.0823921 14.0771714,47.8737838 L21.7268271,42.2588321 C22.2205123,41.8962936 24.2197763,49.4976233 23.6505105,49.7227564 L15.1412874,53.0913159 C15.0094295,53.1427632 14.8711289,53.1684868 14.7332399,53.1684868 C14.5141799,53.1684868 14.2966843,53.1033433 14.1105476,52.9767326 Z" id="Path" stroke="#363636" fill="url(#linearGradient-1)" stroke-linejoin="round"></path>
                <path d="M26.0791529,53.8309399 C24.3449379,53.8309399 22.8611854,52.3522954 22.550792,50.3163084 L19.9923724,33.5585453 C19.6348216,31.2171238 19.4530547,28.8162399 19.4530547,26.4234788 L19.4530547,18.8295837 C19.4530547,13.5694039 20.3027863,8.46345139 21.9786452,3.65574788 L22.1708028,3.10495566 C22.8279779,1.21871801 24.3528639,0 26.0543521,0 C27.7881579,0 29.3234551,1.25089641 29.9658214,3.18597442 L30.3757044,4.41937578 C31.9153993,9.05556527 32.6956273,13.9564716 32.6956273,18.9871329 L32.6956273,26.9011459 C32.6956273,29.3511825 32.5050651,31.811008 32.1287373,34.2114753 L29.6042718,50.336084 C29.2878647,52.3606159 27.8053191,53.8309399 26.0790813,53.8309399 L26.0791529,53.8309399 Z" id="Path" stroke="#363636" fill="#FFFFFF" stroke-linejoin="round"></path>
                <g id="Group" transform="translate(19.264715, 0.391228)">
                    <mask id="mask-3" fill="white">
                        <use xlink:href="#path-2"></use>
                    </mask>
                    <use id="Combined-Shape" fill="#363636" opacity="0.099999994" xlink:href="#path-2"></use>
                </g>
                <path d="M23.5810796,13.3952829 C23.3047523,13.3952829 23.0271556,13.3056375 22.8046639,13.1224272 C22.3223687,12.7262668 22.2799903,12.0431104 22.7088829,11.5984559 C22.829671,11.473187 23.9400902,10.3716224 25.6751507,10.2831324 C26.8499403,10.2103201 27.9840441,10.6381946 29.0376442,11.5142752 C29.5169775,11.9135723 29.5555368,12.5954961 29.1232537,13.0394491 C28.6926566,13.481017 27.9531294,13.5178159 27.4733622,13.1185248 C26.8986722,12.640158 26.3290598,12.4283734 25.8035074,12.4385452 C25.0368346,12.4776912 24.4600073,13.0288724 24.454908,13.0339633 C24.2230856,13.2727559 23.9026874,13.3952889 23.581009,13.3952889 L23.5810796,13.3952829 Z" id="Path" stroke="#363636" fill="#EEEEEE" stroke-linejoin="round"></path>
            </g>
            <g id="Group-2" transform="translate(9.285747, 67.363249) rotate(2.000000) translate(-9.285747, -67.363249) translate(0.248352, 60.089304)" stroke="#FBE1DD" stroke-linecap="round" stroke-linejoin="round">
                <line x1="15.4798018" y1="0.484439714" x2="8.46902806" y2="7.50586666" id="Path-6"></line>
                <line x1="10.1266731" y1="0" x2="-4.54747351e-13" y2="10.1420611" id="Path-6-Copy"></line>
                <line x1="18.0747914" y1="4.40582838" x2="7.94811824" y2="14.5478895" id="Path-6-Copy-2"></line>
            </g>
        </g>
    </g>
</svg>