<svg width="120" height="120" viewBox="0 0 120 120" fill="none" xmlns="http://www.w3.org/2000/svg">
<path d="M60 101C85.9574 101 107 97.6421 107 93.5C107 89.3579 85.9574 86 60 86C34.0426 86 13 89.3579 13 93.5C13 97.6421 34.0426 101 60 101Z" fill="#F8F8F8"/>
<path d="M25 55C25 53.3431 26.3431 52 28 52H92C93.6569 52 95 53.3431 95 55V62H25V55Z" fill="#F8F8F8" stroke="#363636"/>
<path fill-rule="evenodd" clip-rule="evenodd" d="M26.5925 36.2852C26.5202 36.1176 26.2967 36.049 26.1688 36.1792C23.4035 38.994 22.4603 43.3088 24.1207 47.155C25.4681 50.2763 28.2161 52.3614 31.3126 52.9927C32.4809 53.2309 33.5675 53.9015 34.0401 54.9962L40.6538 70.3166C41.3105 71.8377 43.076 72.5385 44.5972 71.8819L46.4334 71.0892C47.9545 70.4325 48.6553 68.667 47.9987 67.1458L41.3853 51.8264C40.9127 50.7315 41.17 49.4806 41.7981 48.4669C43.4629 45.7803 43.8304 42.3499 42.4827 39.2282C40.8224 35.3821 37.0355 33.1093 33.0906 33.1912C32.9083 33.195 32.805 33.4046 32.8773 33.5721L35.5303 39.7177C35.9681 40.7318 35.5009 41.9088 34.4868 42.3466L31.8744 43.4743C30.8603 43.9121 29.6833 43.4449 29.2455 42.4308L26.5925 36.2852Z" fill="#EEEEEE"/>
<path d="M26.1688 36.1792L26.5255 36.5296L26.5255 36.5296L26.1688 36.1792ZM33.0906 33.1912L33.101 33.6911L33.101 33.6911L33.0906 33.1912ZM32.8773 33.5721L33.3363 33.3739L32.8773 33.5721ZM35.5303 39.7177L35.0712 39.9158L35.5303 39.7177ZM34.4868 42.3466L34.2886 41.8875L34.4868 42.3466ZM31.8744 43.4743L32.0726 43.9333L31.8744 43.4743ZM47.9987 67.1458L47.5396 67.344L47.9987 67.1458ZM31.3126 52.9927L31.2127 53.4826L31.3126 52.9927ZM26.5255 36.5296C26.4428 36.6137 26.335 36.6205 26.2712 36.6033C26.2138 36.5878 26.1613 36.5479 26.1335 36.4833L27.0516 36.087C26.9514 35.8549 26.751 35.697 26.5318 35.6378C26.3061 35.5769 26.0227 35.6144 25.8121 35.8288L26.5255 36.5296ZM24.5797 46.9569C23.0027 43.3037 23.8977 39.2044 26.5255 36.5296L25.8121 35.8288C22.9092 38.7836 21.9179 43.3139 23.6616 47.3532L24.5797 46.9569ZM31.4125 52.5028C28.4694 51.9028 25.8596 49.9217 24.5797 46.9569L23.6616 47.3532C25.0766 50.631 27.9629 52.8201 31.2127 53.4826L31.4125 52.5028ZM41.1129 70.1184L34.4992 54.7981L33.5811 55.1944L40.1948 70.5147L41.1129 70.1184ZM46.2352 70.6301L44.399 71.4228L44.7953 72.3409L46.6315 71.5482L46.2352 70.6301ZM40.9263 52.0246L47.5396 67.344L48.4577 66.9477L41.8444 51.6282L40.9263 52.0246ZM42.0237 39.4264C43.3038 42.3916 42.9554 45.65 41.3731 48.2035L42.2231 48.7303C43.9704 45.9106 44.357 42.3082 42.9418 39.03L42.0237 39.4264ZM33.101 33.6911C36.8497 33.6133 40.4467 35.7733 42.0237 39.4264L42.9418 39.03C41.1981 34.9909 37.2214 32.6054 33.0802 32.6913L33.101 33.6911ZM33.3363 33.3739C33.3642 33.4385 33.3572 33.5041 33.3291 33.5566C33.2978 33.6148 33.219 33.6886 33.101 33.6911L33.0802 32.6913C32.7799 32.6975 32.5582 32.8781 32.4478 33.084C32.3405 33.2841 32.318 33.5382 32.4182 33.7703L33.3363 33.3739ZM35.9893 39.5195L33.3363 33.3739L32.4182 33.7703L35.0712 39.9158L35.9893 39.5195ZM34.6849 42.8056C35.9526 42.2584 36.5366 40.7871 35.9893 39.5195L35.0712 39.9158C35.3996 40.6764 35.0492 41.5592 34.2886 41.8875L34.6849 42.8056ZM32.0726 43.9333L34.6849 42.8056L34.2886 41.8875L31.6763 43.0152L32.0726 43.9333ZM28.7865 42.6289C29.3337 43.8966 30.805 44.4806 32.0726 43.9333L31.6763 43.0152C30.9157 43.3436 30.0329 42.9932 29.7046 42.2326L28.7865 42.6289ZM26.1335 36.4833L28.7865 42.6289L29.7046 42.2326L27.0516 36.087L26.1335 36.4833ZM41.8444 51.6282C41.4562 50.729 41.6513 49.6531 42.2231 48.7303L41.3731 48.2035C40.6887 49.308 40.3692 50.7341 40.9263 52.0246L41.8444 51.6282ZM46.6315 71.5482C48.4062 70.7821 49.2238 68.7224 48.4577 66.9477L47.5396 67.344C48.0868 68.6117 47.5028 70.0829 46.2352 70.6301L46.6315 71.5482ZM40.1948 70.5147C40.9609 72.2894 43.0206 73.107 44.7953 72.3409L44.399 71.4228C43.1313 71.97 41.6601 71.386 41.1129 70.1184L40.1948 70.5147ZM31.2127 53.4826C32.2764 53.6995 33.1929 54.2953 33.5811 55.1944L34.4992 54.7981C33.9421 53.5078 32.6854 52.7623 31.4125 52.5028L31.2127 53.4826Z" fill="#363636"/>
<path fill-rule="evenodd" clip-rule="evenodd" d="M51.8934 36.6752C51.734 36.219 51.2711 35.9421 50.7937 36.0173L48.4913 36.3801C48.0139 36.4554 47.6586 36.8612 47.6472 37.3444L47.4292 46.5977C47.4159 47.165 47.9196 47.606 48.4802 47.5176V47.5176C48.9764 47.4394 49.4421 47.7783 49.5203 48.2746L51.8693 63.181C51.9553 63.7265 52.4673 64.0991 53.0128 64.0131L54.9884 63.7018C55.534 63.6158 55.9065 63.1039 55.8206 62.5583L53.4716 47.6523C53.3934 47.1558 53.7324 46.6899 54.2289 46.6117V46.6117C54.7898 46.5233 55.1336 45.9486 54.9464 45.4126L51.8934 36.6752Z" fill="#EEEEEE"/>
<path d="M54.9464 45.4126L54.4744 45.5775L54.9464 45.4126ZM51.8935 36.6752L51.4214 36.8402L51.8935 36.6752ZM48.5692 36.874L50.8716 36.5112L50.7159 35.5234L48.4135 35.8862L48.5692 36.874ZM47.9291 46.6094L48.1471 37.3562L47.1474 37.3326L46.9294 46.5859L47.9291 46.6094ZM52.3633 63.1031L50.0143 48.1967L49.0264 48.3524L51.3755 63.2588L52.3633 63.1031ZM54.9106 63.2079L52.935 63.5192L53.0907 64.507L55.0663 64.1957L54.9106 63.2079ZM52.9778 47.7301L55.3267 62.6361L56.3145 62.4805L53.9656 47.5745L52.9778 47.7301ZM51.4214 36.8402L54.4744 45.5775L55.4184 45.2476L52.3655 36.5103L51.4214 36.8402ZM54.3068 47.1056C55.1758 46.9687 55.7086 46.0781 55.4184 45.2476L54.4744 45.5775C54.5588 45.819 54.4038 46.078 54.1511 46.1178L54.3068 47.1056ZM53.9656 47.5745C53.9303 47.3508 54.0831 47.1409 54.3068 47.1056L54.1511 46.1178C53.3819 46.239 52.8565 46.9609 52.9778 47.7301L53.9656 47.5745ZM55.0663 64.1957C55.8846 64.0667 56.4435 63.2988 56.3145 62.4805L55.3267 62.6361C55.3697 62.9089 55.1834 63.1649 54.9106 63.2079L55.0663 64.1957ZM51.3755 63.2588C51.5044 64.0771 52.2724 64.636 53.0907 64.507L52.935 63.5192C52.6622 63.5622 52.4063 63.3759 52.3633 63.1031L51.3755 63.2588ZM48.5581 48.0115C48.7815 47.9763 48.9912 48.1289 49.0264 48.3524L50.0143 48.1967C49.8931 47.4277 49.1714 46.9025 48.4024 47.0237L48.5581 48.0115ZM46.9294 46.5859C46.9087 47.4651 47.6893 48.1484 48.5581 48.0115L48.4024 47.0237C48.15 47.0635 47.9231 46.8649 47.9291 46.6094L46.9294 46.5859ZM50.8716 36.5112C51.1103 36.4736 51.3417 36.6121 51.4214 36.8402L52.3655 36.5103C52.1263 35.826 51.432 35.4105 50.7159 35.5234L50.8716 36.5112ZM48.4135 35.8862C47.6974 35.9991 47.1645 36.6079 47.1474 37.3326L48.1471 37.3562C48.1528 37.1146 48.3305 36.9116 48.5692 36.874L48.4135 35.8862Z" fill="#363636"/>
<path fill-rule="evenodd" clip-rule="evenodd" d="M65.2359 36.1597C63.7013 36.5632 62.5 34 63.2589 33.427C66.7291 31.1344 70.4646 29.4575 74.4444 28.4591C77.5858 27.6761 80.7521 27.4536 83.8392 28.4606C85.0047 28.8442 86.0791 29.4412 87.1491 30.0358C87.5165 30.2399 87.8834 30.4438 88.2532 30.6386C89.0813 31.0758 89.9047 31.5217 90.7282 31.9676C91.5516 32.4134 92.375 32.8593 93.2031 33.2966C93.9462 33.6808 94.3465 34.4134 94.5399 35.1089C95.3632 38.0357 97.7364 39.7389 100.58 39.4318C101.169 39.3637 101.688 39.4796 102.199 39.7687C102.771 40.104 103.356 40.4169 103.941 40.7298C104.292 40.9175 104.643 41.1053 104.991 41.2978C105.739 41.6995 105.847 41.9203 105.621 42.7898C105.151 44.5634 104.476 46.2421 103.42 47.7603C102.913 48.4937 102.368 49.1919 101.741 49.8315C101.362 50.2198 100.981 50.2961 100.498 50.0074C99.472 49.4118 98.4209 48.8622 97.3698 48.3125C96.9298 48.0762 96.6236 47.7491 96.3852 47.2958C95.1582 44.936 92.4518 43.6158 89.8574 44.1454C88.3783 44.4456 87.3144 45.3976 86.554 46.7345C86.342 47.1161 86.1343 47.4964 85.9265 47.8766C85.7188 48.2568 85.5111 48.637 85.2991 49.0187C85.2407 49.1232 85.1817 49.2143 85.1214 49.2923L71.1254 75.3562L60.99 69.9136L74.966 43.8869C75.0007 43.7837 75.0501 43.6717 75.1134 43.5491C75.3413 43.0959 75.5859 42.6535 75.8302 42.2116C76.2576 41.4386 76.6843 40.6668 77.02 39.8402C77.3512 39.0123 77.6212 38.1664 77.6123 37.2594C77.6121 36.2832 77.1811 35.608 76.3143 35.2165C74.5587 34.4217 72.6897 34.4977 70.8238 34.7529C68.9407 35.0136 67.0875 35.4827 65.2359 36.1597Z" fill="#EEEEEE"/>
<path d="M63.259 33.427L62.9834 33.0098L62.9703 33.0185L62.9577 33.028L63.259 33.427ZM65.236 36.1597L65.3631 36.6433L65.3858 36.6373L65.4077 36.6293L65.236 36.1597ZM74.4445 28.4591L74.3235 27.974L74.3228 27.9742L74.4445 28.4591ZM83.8393 28.4606L83.9956 27.9857L83.9944 27.9853L83.8393 28.4606ZM87.1492 30.0358L86.9064 30.4729L87.1492 30.0358ZM88.2533 30.6386L88.4868 30.1965L88.4863 30.1962L88.2533 30.6386ZM90.7282 31.9676L90.9663 31.5279L90.7282 31.9676ZM93.2032 33.2966L92.9697 33.7388L92.9735 33.7408L93.2032 33.2966ZM94.5399 35.1089L94.0582 35.2429L94.0586 35.2443L94.5399 35.1089ZM100.58 39.4319L100.633 39.929L100.637 39.9285L100.58 39.4319ZM102.199 39.7687L102.451 39.3372L102.445 39.3336L102.199 39.7687ZM103.941 40.7298L103.705 41.1707L103.941 40.7298ZM104.991 41.2979L104.749 41.7355L104.755 41.7384L104.991 41.2979ZM105.621 42.7899L106.105 42.9181L106.105 42.9157L105.621 42.7899ZM103.42 47.7604L103.01 47.4748L103.009 47.476L103.42 47.7604ZM101.741 49.8315L101.384 49.4815L101.383 49.4825L101.741 49.8315ZM100.499 50.0074L100.755 49.5783L100.749 49.5749L100.499 50.0074ZM97.3698 48.3125L97.1333 48.7531L97.1381 48.7556L97.3698 48.3125ZM96.3853 47.2958L95.9417 47.5265L95.9427 47.5285L96.3853 47.2958ZM89.8575 44.1454L89.957 44.6355L89.9575 44.6353L89.8575 44.1454ZM86.5541 46.7346L86.1194 46.4874L86.117 46.4918L86.5541 46.7346ZM85.9266 47.8766L86.3654 48.1164L86.3654 48.1164L85.9266 47.8766ZM85.2992 49.0187L85.7356 49.2626L85.7363 49.2615L85.2992 49.0187ZM85.1214 49.2923L84.7261 48.9862L84.7006 49.0191L84.6809 49.0558L85.1214 49.2923ZM71.1255 75.3563L70.889 75.7968L71.3295 76.0333L71.566 75.5928L71.1255 75.3563ZM60.9901 69.9137L60.5496 69.6771L60.313 70.1176L60.7535 70.3542L60.9901 69.9137ZM74.966 43.8869L75.4065 44.1234L75.4264 44.0865L75.4398 44.0467L74.966 43.8869ZM75.1135 43.5492L75.5578 43.7785L75.5602 43.7738L75.1135 43.5492ZM75.8303 42.2116L76.2679 42.4536L75.8303 42.2116ZM77.0201 39.8402L77.4834 40.0283L77.4843 40.0259L77.0201 39.8402ZM77.6124 37.2594L77.1123 37.2595L77.1124 37.2643L77.6124 37.2594ZM76.3144 35.2165L76.1082 35.672L76.1086 35.6722L76.3144 35.2165ZM70.8239 34.7529L70.7561 34.2575L70.7553 34.2577L70.8239 34.7529ZM62.9577 33.028C62.5612 33.3273 62.498 33.8193 62.5342 34.1998C62.5724 34.6024 62.7295 35.035 62.9587 35.4169C63.3949 36.1436 64.2663 36.9317 65.3631 36.6433L65.1089 35.6762C64.6711 35.7913 64.1746 35.4995 63.8161 34.9023C63.648 34.6222 63.5512 34.3317 63.5297 34.1052C63.5061 33.8565 63.5773 33.8132 63.5603 33.8261L62.9577 33.028ZM74.3228 27.9742C70.2856 28.987 66.4983 30.6877 62.9834 33.0098L63.5346 33.8442C66.96 31.5812 70.6438 29.9281 74.5661 28.9441L74.3228 27.9742ZM83.9944 27.9853C80.7862 26.9388 77.517 27.178 74.3235 27.974L74.5654 28.9443C77.6547 28.1742 80.7181 27.9685 83.6843 28.936L83.9944 27.9853ZM87.3921 29.5988C86.3291 29.0081 85.2137 28.3866 83.9956 27.9857L83.683 28.9356C84.7958 29.3019 85.8292 29.8744 86.9064 30.4729L87.3921 29.5988ZM88.4863 30.1962C88.1223 30.0045 87.7603 29.8033 87.3921 29.5988L86.9064 30.4729C87.2729 30.6765 87.6447 30.8831 88.0203 31.081L88.4863 30.1962ZM90.9663 31.5279C90.1433 31.0823 89.3175 30.6352 88.4868 30.1965L88.0198 31.0808C88.8452 31.5166 89.6664 31.9612 90.4902 32.4073L90.9663 31.5279ZM93.4366 32.8545C92.6113 32.4186 91.7901 31.974 90.9663 31.5279L90.4902 32.4073C91.3132 32.853 92.1389 33.3001 92.9697 33.7388L93.4366 32.8545ZM95.0217 34.9749C94.8088 34.2096 94.3482 33.3258 93.4328 32.8525L92.9735 33.7408C93.5445 34.036 93.8843 34.6173 94.0582 35.2429L95.0217 34.9749ZM100.526 38.9347C97.9486 39.2132 95.785 37.6884 95.0213 34.9735L94.0586 35.2443C94.9416 38.383 97.5243 40.2648 100.633 39.929L100.526 38.9347ZM102.445 39.3336C101.847 38.9954 101.223 38.8542 100.522 38.9352L100.637 39.9285C101.115 39.8733 101.528 39.9639 101.952 40.2039L102.445 39.3336ZM104.177 40.289C103.591 39.9753 103.014 39.6669 102.451 39.3372L101.946 40.2002C102.528 40.5412 103.122 40.8586 103.705 41.1707L104.177 40.289ZM105.233 40.8603C104.881 40.6658 104.527 40.4764 104.177 40.289L103.705 41.1707C104.057 41.3587 104.405 41.5448 104.749 41.7354L105.233 40.8603ZM106.105 42.9157C106.216 42.4907 106.298 42.0597 106.131 41.6705C105.962 41.278 105.591 41.0527 105.228 40.8574L104.755 41.7384C105.139 41.9447 105.197 42.0306 105.212 42.0663C105.229 42.1053 105.253 42.2195 105.137 42.6641L106.105 42.9157ZM103.83 48.0459C104.929 46.4668 105.624 44.7302 106.105 42.9181L105.138 42.6616C104.678 44.3967 104.023 46.0174 103.01 47.4748L103.83 48.0459ZM102.098 50.1815C102.751 49.5157 103.313 48.7934 103.831 48.0448L103.009 47.476C102.512 48.194 101.985 48.8683 101.384 49.4815L102.098 50.1815ZM100.242 50.4365C100.549 50.6203 100.883 50.7222 101.236 50.6674C101.583 50.6135 101.866 50.4197 102.099 50.1806L101.383 49.4825C101.238 49.6316 101.14 49.6702 101.082 49.6793C101.028 49.6876 100.931 49.6833 100.755 49.5783L100.242 50.4365ZM97.1381 48.7556C98.1909 49.3061 99.2322 49.8508 100.248 50.4399L100.749 49.5749C99.7119 48.9729 98.651 48.4183 97.6015 47.8695L97.1381 48.7556ZM95.9427 47.5285C96.2223 48.0601 96.596 48.4645 97.1333 48.7531L97.6064 47.872C97.2637 47.688 97.0251 47.4382 96.8278 47.0631L95.9427 47.5285ZM89.9575 44.6353C92.3283 44.1514 94.8154 45.3604 95.9417 47.5265L96.8289 47.0651C95.5011 44.5117 92.5754 43.0803 89.7575 43.6556L89.9575 44.6353ZM86.9887 46.9818C87.6985 45.7338 88.656 44.8995 89.957 44.6355L89.7581 43.6554C88.1007 43.9918 86.9304 45.0616 86.1194 46.4874L86.9887 46.9818ZM86.3654 48.1164C86.5733 47.7359 86.7801 47.3572 86.9911 46.9774L86.117 46.4918C85.904 46.8752 85.6954 47.257 85.4878 47.6369L86.3654 48.1164ZM85.7363 49.2615C85.9493 48.8781 86.1578 48.4963 86.3654 48.1164L85.4878 47.6369C85.28 48.0174 85.0731 48.3961 84.8621 48.7759L85.7363 49.2615ZM85.5168 49.5984C85.5957 49.4965 85.6681 49.3835 85.7356 49.2626L84.8627 48.7748C84.8135 48.8629 84.7679 48.9322 84.7261 48.9862L85.5168 49.5984ZM84.6809 49.0558L70.685 75.1197L71.566 75.5928L85.5619 49.5289L84.6809 49.0558ZM71.3621 74.9158L61.2266 69.4732L60.7535 70.3542L70.889 75.7968L71.3621 74.9158ZM61.4306 70.1502L75.4065 44.1234L74.5255 43.6504L60.5496 69.6771L61.4306 70.1502ZM74.6692 43.3198C74.5982 43.4574 74.5374 43.5932 74.4922 43.7271L75.4398 44.0467C75.4642 43.9742 75.5022 43.8862 75.5578 43.7785L74.6692 43.3198ZM75.3927 41.9697C75.1492 42.4102 74.8998 42.8611 74.6668 43.3245L75.5602 43.7738C75.783 43.3307 76.0228 42.8969 76.2679 42.4536L75.3927 41.9697ZM76.5568 39.6521C76.2342 40.4465 75.8225 41.1925 75.3927 41.9697L76.2679 42.4536C76.693 41.6847 77.1346 40.8872 77.4834 40.0283L76.5568 39.6521ZM77.1124 37.2643C77.1203 38.0709 76.8806 38.8427 76.5559 39.6545L77.4843 40.0259C77.8219 39.182 78.1223 38.2619 78.1123 37.2545L77.1124 37.2643ZM76.1086 35.6722C76.4701 35.8355 76.7117 36.0438 76.8665 36.2871C77.0217 36.5311 77.1123 36.8461 77.1124 37.2595L78.1124 37.2593C78.1123 36.6965 77.9873 36.1859 77.7102 35.7503C77.4327 35.3141 77.0254 34.9891 76.5202 34.7609L76.1086 35.6722ZM70.8916 35.2483C72.7376 34.9959 74.4871 34.9381 76.1082 35.672L76.5206 34.761C74.6305 33.9053 72.6421 33.9996 70.7561 34.2575L70.8916 35.2483ZM65.4077 36.6293C67.2277 35.9638 69.0464 35.5038 70.8925 35.2482L70.7553 34.2577C68.8351 34.5235 66.9474 35.0016 65.0643 35.6901L65.4077 36.6293Z" fill="#363636"/>
<path d="M25 68H95V87C95 90.3137 92.3137 93 89 93H31C27.6863 93 25 90.3137 25 87V68Z" fill="white" stroke="#363636"/>
<path d="M21 61H99V66C99 67.6569 97.6569 69 96 69H24C22.3431 69 21 67.6569 21 66V61Z" fill="#EEEEEE" stroke="#363636"/>
<path d="M32 61H40V71C40 72.1046 39.1046 73 38 73H34C32.8954 73 32 72.1046 32 71V61Z" fill="url(#paint0_linear_3180_66004)" stroke="#363636"/>
<path d="M80 61H88V71C88 72.1046 87.1046 73 86 73H82C80.8954 73 80 72.1046 80 71V61Z" fill="url(#paint1_linear_3180_66004)" stroke="#363636"/>
<path opacity="0.1" fill-rule="evenodd" clip-rule="evenodd" d="M29 68H25V87C25 90.3137 27.6863 93 31 93H89C91.7075 93 93.9962 91.2066 94.7429 88.7429C94.1913 88.9101 93.6062 89 93 89H35C31.6863 89 29 86.3137 29 83V68Z" fill="#363636"/>
<defs>
<linearGradient id="paint0_linear_3180_66004" x1="36" y1="79" x2="47.0769" y2="71.6154" gradientUnits="userSpaceOnUse">
<stop stop-color="#FF7100"/>
<stop offset="1" stop-color="#F6DA35"/>
</linearGradient>
<linearGradient id="paint1_linear_3180_66004" x1="84" y1="79" x2="95.0769" y2="71.6154" gradientUnits="userSpaceOnUse">
<stop stop-color="#FF7100"/>
<stop offset="1" stop-color="#F6DA35"/>
</linearGradient>
</defs>
</svg>
