<svg width="120" height="120" viewBox="0 0 120 120" fill="none" xmlns="http://www.w3.org/2000/svg">
<path d="M60 106C83.196 106 102 103.09 102 99.5C102 95.9101 83.196 93 60 93C36.804 93 18 95.9101 18 99.5C18 103.09 36.804 106 60 106Z" fill="#F8F8F8"/>
<path fill-rule="evenodd" clip-rule="evenodd" d="M31.7149 50.5722L57.245 27.3545C59.217 25.561 62.2166 25.547 64.2051 27.322L90.2491 50.5689C91.3627 51.5629 92 52.9883 92 54.4851V97H30V54.4559C30 52.9761 30.623 51.5652 31.7149 50.5722Z" fill="#EEEEEE" stroke="#363636"/>
<path d="M92.5 97H29.5C28.6716 97 28 97.6716 28 98.5C28 99.3284 28.6716 100 29.5 100H92.5C93.3284 100 94 99.3284 94 98.5C94 97.6716 93.3284 97 92.5 97Z" fill="#DADADA" stroke="#363636"/>
<path fill-rule="evenodd" clip-rule="evenodd" d="M64.1258 29.2797L65 30.0379C64.0001 30.1707 63.0312 30.5929 62.2278 31.3038L36.7489 53.8477C35.632 54.8359 34.9928 56.2538 34.9928 57.7431V96.9998L30 97V55.7508C30 54.2616 30.6392 52.8436 31.7561 51.8554L57.235 29.3115C59.1975 27.575 62.1472 27.5614 64.1258 29.2797Z" fill="#363636" fill-opacity="0.1"/>
<path fill-rule="evenodd" clip-rule="evenodd" d="M70.6362 66H78.3638C79.8197 66 81 67.1961 81 68.6717V97H68V68.6717C68 67.1961 69.1803 66 70.6362 66Z" fill="white" stroke="#363636"/>
<path d="M76.9092 82.3435V85.3761" stroke="#363636" stroke-linecap="round"/>
<path d="M100.089 26.5071C101.692 26.5071 102.992 25.2073 102.992 23.6038C102.992 22.2264 102.033 21.0739 100.746 20.7761C100.72 17.8617 98.3492 15.5071 95.4286 15.5071C93.4235 15.5071 91.6778 16.6171 90.7718 18.2559C90.4961 18.1366 90.1922 18.0702 89.8728 18.0702C88.7219 18.0702 87.7721 18.9284 87.6267 20.0396C86.1291 20.3365 85 21.6572 85 23.2419C85 25.0453 86.4619 26.5071 88.2652 26.5071C88.7675 26.5071 99.7448 26.5071 100.089 26.5071Z" fill="black" fill-opacity="0.1"/>
<path d="M21.3455 37.5071C22.6574 37.5071 23.7209 36.4436 23.7209 35.1317C23.7209 34.0047 22.9358 33.0617 21.883 32.8181C21.8614 30.4336 19.9221 28.5071 17.5325 28.5071C15.8919 28.5071 14.4637 29.4153 13.7224 30.7561C13.4968 30.6585 13.2482 30.6042 12.9868 30.6042C12.0452 30.6042 11.2681 31.3063 11.1491 32.2155C9.92382 32.4584 9 33.539 9 34.8356C9 36.3111 10.1961 37.5071 11.6715 37.5071C12.0825 37.5071 21.0639 37.5071 21.3455 37.5071Z" fill="black" fill-opacity="0.1"/>
<path d="M53.4145 80H49.5855C48.1576 80 47 78.8853 47 77.5103V69.4897C47 68.1147 48.1576 67 49.5855 67H53.4145C54.8424 67 56 68.1147 56 69.4897V77.5103C56 78.8853 54.8424 80 53.4145 80Z" fill="url(#paint0_linear_536_93)" stroke="#363636"/>
<path d="M58.6882 96.7797C59.851 96.7797 61.6881 97.7124 62 97.2168C62 97.2168 62 97.3374 62 96.5C62 95.6626 59.093 93.4766 57.6653 93.2956C57.6361 91.5238 55.0063 89 51.7659 89C49.5412 89 47.6045 90.7672 46.5993 91.7635C46.2934 91.691 45.9563 91.6506 45.6018 91.6506C44.3249 91.6506 43.2711 92.1723 43.1098 92.8478C41.4483 93.0284 40.4438 93.7339 40.1956 94.7947C40.0503 95.4155 39.8398 96.4103 40.1956 96.7797C40.4477 97.0415 41.0466 96.7797 41.8763 96.7797C42.4336 96.7797 58.3064 96.7797 58.6882 96.7797Z" fill="black" fill-opacity="0.1"/>
<path fill-rule="evenodd" clip-rule="evenodd" d="M32 45L38 39.7566V34.592C38 33.1605 36.8424 32 35.4145 32H34.5855C33.1576 32 32 33.1605 32 34.592V45Z" fill="#EEEEEE" stroke="#363636" stroke-width="1.089"/>
<path d="M55.4817 23.784C58.0187 21.5114 61.8132 21.4048 64.4698 23.4944L64.6827 23.6686L99.9476 53.6971C101.207 54.7692 101.357 56.6579 100.284 57.9156C99.2521 59.125 97.4643 59.3106 96.209 58.37L96.061 58.2517L60.796 28.2231C60.4472 27.9262 59.9462 27.9073 59.5784 28.1631L59.4816 28.2396L25.9956 58.2354C24.7639 59.3388 22.87 59.2358 21.7654 58.0054C20.7034 56.8223 20.7578 55.0276 21.8586 53.9105L21.9957 53.7797L55.4817 23.784Z" fill="white" stroke="#363636"/>
<path d="M38.373 31H31.627C30.7284 31 30 31.6716 30 32.5C30 33.3284 30.7284 34 31.627 34H38.373C39.2716 34 40 33.3284 40 32.5C40 31.6716 39.2716 31 38.373 31Z" fill="url(#paint1_linear_536_93)" stroke="#363636" stroke-width="1.089"/>
<defs>
<linearGradient id="paint0_linear_536_93" x1="51.5" y1="60.5" x2="63.668" y2="68.924" gradientUnits="userSpaceOnUse">
<stop stop-color="#FF7100"/>
<stop offset="1" stop-color="#F6DA35"/>
</linearGradient>
<linearGradient id="paint1_linear_536_93" x1="35" y1="35.5" x2="36.6514" y2="29.9954" gradientUnits="userSpaceOnUse">
<stop stop-color="#FF7100"/>
<stop offset="1" stop-color="#F6DA35"/>
</linearGradient>
</defs>
</svg>
