<svg width="120" height="120" viewBox="0 0 120 120" fill="none" xmlns="http://www.w3.org/2000/svg">
<path d="M60.1516 106.068C83.4313 106.068 102.303 103.143 102.303 99.5341C102.303 95.9254 83.4313 93 60.1516 93C36.8719 93 18 95.9254 18 99.5341C18 103.143 36.8719 106.068 60.1516 106.068Z" fill="#F8F8F8"/>
<path fill-rule="evenodd" clip-rule="evenodd" d="M31.8592 50.4182L57.4588 27.2492C59.4362 25.4596 62.4439 25.4456 64.4379 27.2169L90.5527 50.4149C91.6695 51.4069 92.3084 52.8292 92.3084 54.3229V96.7485H30.1396V54.2938C30.1396 52.817 30.7643 51.4092 31.8592 50.4182Z" fill="#EEEEEE" stroke="#363636"/>
<path d="M93.4773 96H29.5227C28.6817 96 28 96.6716 28 97.5C28 98.3284 28.6817 99 29.5227 99H93.4773C94.3183 99 95 98.3284 95 97.5C95 96.6716 94.3183 96 93.4773 96Z" fill="#DCDCDC" stroke="#363636"/>
<path opacity="0.1" fill-rule="evenodd" clip-rule="evenodd" d="M64.175 28.016L65.0504 28.7772C64.0491 28.9105 63.0788 29.3343 62.2742 30.048L36.7586 52.6796C35.6402 53.6717 35 55.0952 35 56.5902V95.9998L30 96V54.5902C30 53.0952 30.6402 51.6717 31.7586 50.6796L57.2742 28.048C59.2396 26.3047 62.1935 26.291 64.175 28.016Z" fill="#363636"/>
<path fill-rule="evenodd" clip-rule="evenodd" d="M48.6362 66H56.3638C57.8197 66 59 67.1576 59 68.5855V96H46V68.5855C46 67.1576 47.1803 66 48.6362 66Z" fill="white" stroke="#363636"/>
<path d="M55 82V85" stroke="#363636" stroke-linecap="round"/>
<path fill-rule="evenodd" clip-rule="evenodd" d="M32.167 44.8974L38.2322 39.6103V34.4025C38.2322 32.959 37.0621 31.7889 35.6186 31.7889H34.7806C33.3371 31.7889 32.167 32.959 32.167 34.4025V44.8974Z" fill="#EEEEEE" stroke="#363636"/>
<path d="M55.532 23.7885C58.0727 21.5101 61.8728 21.4033 64.5333 23.4982L64.7464 23.6728L100.063 53.7777C101.324 54.8526 101.475 56.7461 100.4 58.007C99.3663 59.2194 97.5759 59.4055 96.3188 58.4625L96.1706 58.3439L60.8541 28.239C60.5048 27.9412 60.003 27.9224 59.6347 28.1788L59.5378 28.2555L26.0029 58.3276C24.7694 59.4337 22.8727 59.3305 21.7665 58.0969C20.7029 56.9109 20.7575 55.1117 21.8598 53.9916L21.9972 53.8606L55.532 23.7885Z" fill="white" stroke="#363636"/>
<path d="M38.2917 30.4852H32.0046C31.1672 30.4852 30.4883 31.164 30.4883 32.0015C30.4883 32.8389 31.1672 33.5178 32.0046 33.5178H38.2917C39.1292 33.5178 39.8081 32.8389 39.8081 32.0015C39.8081 31.164 39.1292 30.4852 38.2917 30.4852Z" fill="url(#paint0_linear_536_95)" stroke="#363636"/>
<path opacity="0.1" d="M100.089 26.5071C101.692 26.5071 102.992 25.2073 102.992 23.6038C102.992 22.2264 102.033 21.0739 100.746 20.7761C100.72 17.8617 98.3492 15.5071 95.4286 15.5071C93.4235 15.5071 91.6778 16.6171 90.7718 18.2559C90.4961 18.1366 90.1922 18.0702 89.8728 18.0702C88.7219 18.0702 87.7721 18.9284 87.6267 20.0396C86.1291 20.3365 85 21.6572 85 23.2419C85 25.0453 86.4619 26.5071 88.2652 26.5071C88.7675 26.5071 99.7448 26.5071 100.089 26.5071Z" fill="black"/>
<path opacity="0.1" d="M21.3455 37.5071C22.6574 37.5071 23.7209 36.4436 23.7209 35.1317C23.7209 34.0047 22.9358 33.0617 21.883 32.8181C21.8614 30.4336 19.9221 28.5071 17.5325 28.5071C15.8919 28.5071 14.4637 29.4153 13.7224 30.7561C13.4968 30.6585 13.2482 30.6042 12.9868 30.6042C12.0452 30.6042 11.2681 31.3063 11.1491 32.2155C9.92382 32.4584 9 33.539 9 34.8356C9 36.3111 10.1961 37.5071 11.6715 37.5071C12.0825 37.5071 21.0639 37.5071 21.3455 37.5071Z" fill="black"/>
<path d="M78.286 79.9303H74.4154C72.9719 79.9303 71.8018 78.7601 71.8018 77.3167V68.8971C71.8018 67.4536 72.9719 66.2835 74.4154 66.2835H78.286C79.7295 66.2835 80.8996 67.4536 80.8996 68.8971V77.3167C80.8996 78.7601 79.7295 79.9303 78.286 79.9303Z" fill="url(#paint1_linear_536_95)" stroke="#363636"/>
<path d="M91.5 64C97.299 64 102 59.299 102 53.5C102 47.701 97.299 43 91.5 43C85.701 43 81 47.701 81 53.5C81 59.299 85.701 64 91.5 64Z" fill="#F8F8F8" stroke="#363636"/>
<path d="M90.0359 59C89.9197 59 89.821 58.9652 89.7397 58.8955C89.67 58.8142 89.6351 58.7154 89.6351 58.5993V52.3789C89.6351 52.2627 89.67 52.1698 89.7397 52.1001C89.821 52.0304 89.9197 51.9956 90.0359 51.9956H90.82C90.9361 51.9956 91.0291 52.0304 91.0988 52.1001C91.1801 52.1698 91.2207 52.2627 91.2207 52.3789V57.6061H93.8169C94.8507 57.6061 95.6 57.3505 96.0646 56.8394C96.5292 56.3167 96.7616 55.5907 96.7616 54.6614V49.4517C96.7616 49.3355 96.7964 49.2426 96.8661 49.1729C96.9474 49.0916 97.0461 49.0509 97.1623 49.0509H97.9638C98.08 49.0509 98.1729 49.0916 98.2426 49.1729C98.3239 49.2426 98.3646 49.3355 98.3646 49.4517V54.7137C98.3646 55.6546 98.2019 56.4445 97.8767 57.0834C97.5514 57.7222 97.0578 58.2043 96.3957 58.5296C95.7452 58.8432 94.9146 59 93.904 59H90.0359ZM86.6382 59C86.5221 59 86.4291 58.9652 86.3594 58.8955C86.2897 58.8142 86.2549 58.7154 86.2549 58.5993V49.4517C86.2549 49.3355 86.2897 49.2426 86.3594 49.1729C86.4291 49.0916 86.5221 49.0509 86.6382 49.0509H90.5238C91.5344 49.0509 92.3649 49.2135 93.0154 49.5388C93.6775 49.8524 94.1712 50.3287 94.4964 50.9675C94.8217 51.5948 94.9843 52.3847 94.9843 53.3372V55.6546C94.9843 55.7708 94.9437 55.8695 94.8623 55.9508C94.7926 56.0205 94.6997 56.0554 94.5836 56.0554H93.7821C93.6659 56.0554 93.5672 56.0205 93.4858 55.9508C93.4161 55.8695 93.3813 55.7708 93.3813 55.6546V53.3895C93.3813 52.4602 93.149 51.74 92.6843 51.2289C92.2197 50.7062 91.4705 50.4448 90.4366 50.4448H87.8405V58.5993C87.8405 58.7154 87.7998 58.8142 87.7185 58.8955C87.6488 58.9652 87.5559 59 87.4397 59H86.6382Z" fill="#363636"/>
<defs>
<linearGradient id="paint0_linear_536_95" x1="30.4883" y1="32.162" x2="39.0102" y2="29.389" gradientUnits="userSpaceOnUse">
<stop stop-color="#FF7100"/>
<stop offset="1" stop-color="#F6DA35"/>
</linearGradient>
<linearGradient id="paint1_linear_536_95" x1="74.3289" y1="66.2835" x2="86.9653" y2="81.4037" gradientUnits="userSpaceOnUse">
<stop stop-color="#FF7100"/>
<stop offset="1" stop-color="#F6DA35"/>
</linearGradient>
</defs>
</svg>
