<?xml version="1.0" encoding="UTF-8"?>
<svg width="120px" height="78px" viewBox="0 0 120 78" version="1.1" xmlns="http://www.w3.org/2000/svg" xmlns:xlink="http://www.w3.org/1999/xlink">
    <title>spot_120/rocket</title>
    <defs>
        <linearGradient x1="19.5228757%" y1="100%" x2="80.4771243%" y2="0%" id="linearGradient-1">
            <stop stop-color="#B19200" offset="0%"></stop>
            <stop stop-color="#F0DE89" offset="100%"></stop>
        </linearGradient>
        <linearGradient x1="21.7486517%" y1="100%" x2="78.2513483%" y2="0%" id="linearGradient-2">
            <stop stop-color="#B19200" offset="0%"></stop>
            <stop stop-color="#F0DE89" offset="100%"></stop>
        </linearGradient>
        <linearGradient x1="46.5302836%" y1="100%" x2="53.4697164%" y2="0%" id="linearGradient-3">
            <stop stop-color="#B19200" offset="0%"></stop>
            <stop stop-color="#F0DE89" offset="100%"></stop>
        </linearGradient>
    </defs>
    <g id="spot_120/rocket" stroke="none" stroke-width="1" fill="none" fill-rule="evenodd">
        <path d="M94.6883829,24.4446482 C96.0798974,24.4446482 97.3431223,24.9909501 98.2724323,25.8798844 C99.204218,26.771187 99.8003861,28.0069821 99.8525311,29.3813205 L99.8525311,29.3813205 L99.8928017,30.4426931 L100.685148,29.7353598 C101.361056,29.1319721 102.123757,28.7783513 102.97221,28.7783513 C103.797649,28.7783513 104.545079,29.1106887 105.086061,29.6484186 C105.625948,30.1850609 105.960137,30.9263529 105.960137,31.7453138 C105.960137,32.1198973 105.890371,32.4782873 105.762816,32.8082427 C105.702323,32.9647218 105.627911,33.1171904 105.539592,33.2638444 C105.703675,33.3119997 105.86483,33.3718917 106.021664,33.4434354 C106.493921,33.6588685 106.91208,33.9731503 107.249431,34.3590526 C108.361389,34.1516917 108.916448,33.978795 109.512073,33.978795 C110.337513,33.978795 111.084942,34.3111324 111.625924,34.8488624 C112.165811,35.3855046 112.5,36.1267966 112.5,36.9457575 C112.5,37.7647185 112.165811,38.5060104 111.625924,39.0426527 C111.084942,39.5803827 110.337513,39.91272 109.512073,39.91272 C108.822858,39.91272 108.188003,39.6811125 107.682344,39.2915482 C106.375779,39.9583328 105.482479,40.3460903 104.498178,40.3460903 C104.074453,40.3460903 103.667584,40.2743561 103.289288,40.1421979 C102.155207,41.4209304 101.350813,42.2885606 100.365357,42.892238 C99.4118175,43.4763632 98.2886117,43.8130528 97.0863328,43.8130528 C95.7502072,43.8130528 94.511752,43.397165 93.4951766,42.6881246 C92.1862138,43.1201734 91.2878124,43.3796825 90.3284741,43.3796825 C89.2652291,43.3796825 88.2768533,43.0608505 87.455157,42.5137273 C86.6088555,41.9502208 85.9391352,41.1448845 85.5467345,40.1969338 C85.464681,39.9987112 85.3956131,39.7963297 85.3394572,39.5912625 C85.1834414,39.7308944 85.0146311,39.8522115 84.836403,39.9542079 C84.4003736,40.2037389 83.893197,40.3460903 83.35262,40.3460903 C82.5271803,40.3460903 81.7797508,40.013753 81.2387692,39.476023 C80.6988818,38.9393807 80.3646929,38.1980888 80.3646929,37.3791278 C80.3646929,36.5601669 80.6988818,35.8188749 81.2387692,35.2822327 C81.7797508,34.7445027 82.5271803,34.4121654 83.35262,34.4121654 C84.1607031,34.4121654 84.8940256,34.7306622 85.4320726,35.2485854 C85.5803771,35.3913431 85.7141065,35.5495032 85.8307721,35.7204251 C85.9358609,35.5358893 86.0523103,35.3578472 86.179504,35.1874527 C87.0510814,34.0198478 88.4103783,33.2338077 89.957896,33.12503 C90.3077499,33.1004382 90.6529208,33.1114663 90.9893473,33.1550649 C90.7451105,32.9089249 90.5285497,32.639965 90.3417493,32.3532915 C89.8217803,31.5553203 89.5205015,30.6018403 89.5205015,29.5784623 C89.5205015,28.1611418 90.0986901,26.8781369 91.0330716,25.9493717 C91.9685473,25.0195187 93.2609654,24.4446482 94.6883829,24.4446482 Z" id="Combined-Shape-Copy" stroke="#B19200" opacity="0.299999982" transform="translate(96.432346, 34.128851) scale(-1, 1) translate(-96.432346, -34.128851) "></path>
        <g id="Group" transform="translate(25.416488, 8.451847)">
            <path d="M14.0702581,17.2134073 C13.646681,17.2254362 13.3046554,17.2549825 13.0441815,17.3020461 C7.8601195,18.2387273 1.65811008,24.8963689 3.49270238,31.7958251 C3.49270238,31.7958251 3.49270238,31.7958251 3.49270238,31.7958251 C3.56931417,32.0839434 3.86498637,32.2554033 4.15310472,32.1787916 C4.23118497,32.1580297 4.30360902,32.120006 4.36503599,32.0675245 C4.57952549,31.8842209 4.75307914,31.7311754 4.88567235,31.6083594 C7.74871588,28.9564323 10.9463367,27.6780845 14.4785349,27.7733162 C14.8348399,27.7841865 15.1325488,27.5042142 15.1434883,27.1479113 C15.1439884,27.1316237 15.1438715,27.115323 15.1431633,27.0990431 L14.7337177,17.8317001 C14.7190653,17.4787554 14.4233597,17.2032144 14.0702581,17.2134073 Z" id="Path-2-Copy-4" stroke="#363636" fill="url(#linearGradient-1)" stroke-linejoin="round" transform="translate(9.169098, 24.899295) rotate(32.000000) translate(-9.169098, -24.899295) "></path>
            <path d="M39.456136,34.1947794 C33.9752763,33.7120021 25.7358643,41.9866652 28.558139,50.115003 C32.3843101,46.5188064 36.1873943,44.8265354 39.9673916,45.0381901 C39.8062771,40.7834494 39.6358585,37.1689792 39.456136,34.1947794 Z" id="Path-2-Copy-5" stroke="#363636" fill="url(#linearGradient-2)" stroke-linejoin="round" transform="translate(33.976339, 42.144816) scale(-1, 1) rotate(-38.000000) translate(-33.976339, -42.144816) "></path>
            <path d="M42.7641264,0.35275486 L37.5692402,2.02005016 C29.9690176,4.45924143 23.6385004,9.7748657 19.9454486,16.8215289 L19.9454486,16.8215289 L12.5583444,30.9098754 C11.0034805,33.874952 11.8659597,37.5272649 14.5844701,39.4933586 L14.5844701,39.4933586 L20.4147093,43.7113966 C23.2783003,45.7820698 27.2615133,45.3119603 29.5597902,42.6307423 L29.5597902,42.6307423 L39.9545655,30.5055015 C44.9223255,24.7088118 47.9179899,17.4968134 48.5133206,9.90135704 L48.5133206,9.90135704 L48.8845269,5.16340976 C48.931553,4.55684892 48.8605135,3.94630411 48.6714085,3.36663513 L48.6714085,3.36663513 C48.0310527,1.38659747 46.1880287,0.125668045 44.2049269,0.125668045 L44.2049269,0.125668045 C43.7276618,0.125668045 43.2413916,0.19937166 42.7641264,0.35275486 L42.7641264,0.35275486 Z" id="Clip-15" stroke="#363636" fill="#FFFFFF" transform="translate(30.343518, 22.562982) rotate(-360.000000) translate(-30.343518, -22.562982) "></path>
            <path d="M22.1440394,12.7308056 C15.3622715,25.492487 11.970387,32.6686295 11.970387,34.2612252 C11.970387,35.645658 15.1837065,42.0212763 23.0100547,45.0002967 C23.7924895,45.2980992 26.8806403,45.2599757 28.2163825,43.1932865 C23.0100547,35.469312 23.2706346,25.9083271 27.5982562,19.2423761 C32.544004,12.7873338 39.6194883,7.50744439 48.1832462,2.66890164 L44.1672753,0 C39.7558243,1.54777592 36.9602711,2.32265988 35.7816163,2.32265988 C34.6029614,2.32265988 30.057436,5.79170978 22.1440394,12.7308056 Z" id="Clip-2" fill-opacity="0.1" fill="#363636"></path>
            <path d="M42.7641264,0.35275486 L37.5692402,2.02005016 C29.9690176,4.45924143 23.6385004,9.7748657 19.9454486,16.8215289 L19.9454486,16.8215289 L12.5583444,30.9098754 C11.0034805,33.874952 11.8659597,37.5272649 14.5844701,39.4933586 L14.5844701,39.4933586 L20.4147093,43.7113966 C23.2783003,45.7820698 27.2615133,45.3119603 29.5597902,42.6307423 L29.5597902,42.6307423 L39.9545655,30.5055015 C44.9223255,24.7088118 47.9179899,17.4968134 48.5133206,9.90135704 L48.5133206,9.90135704 L48.8845269,5.16340976 C48.931553,4.55684892 48.8605135,3.94630411 48.6714085,3.36663513 L48.6714085,3.36663513 C48.0310527,1.38659747 46.1880287,0.125668045 44.2049269,0.125668045 L44.2049269,0.125668045 C43.7276618,0.125668045 43.2413916,0.19937166 42.7641264,0.35275486 L42.7641264,0.35275486 Z" id="Clip-15" stroke="#363636" stroke-width="0.744008591" transform="translate(30.343518, 22.562982) rotate(-360.000000) translate(-30.343518, -22.562982) "></path>
            <path d="M21.3809524,26.4188824 L20.3060395,27.5311951 C19.1724093,28.7042682 18.5489838,30.2782368 18.5718979,31.9093997 L18.6643352,38.4896216 L18.6643352,38.4896216 L21.0839278,45.3931265 C21.2169106,45.7725489 21.632297,45.9723276 22.0117193,45.8393448 C22.2625866,45.7514189 22.4455817,45.5337424 22.4890937,45.2714981 L23.7580087,37.6238055 C24.2004344,34.9573261 24.0277682,32.2250093 23.2531912,29.6354373 L22.3625625,26.6578803 C22.269931,26.3481939 21.9437879,26.1722361 21.6341015,26.2648676 C21.5379044,26.2936415 21.4507275,26.3466796 21.3809524,26.4188824 Z" id="Path-3-Copy" stroke="#363636" fill="url(#linearGradient-3)" stroke-linejoin="round" transform="translate(21.483274, 36.887389) rotate(34.000000) translate(-21.483274, -36.887389) "></path>
            <ellipse id="Oval-Copy-34" stroke="#363636" fill="#EEEEEE" transform="translate(35.983729, 15.258397) rotate(36.000000) translate(-35.983729, -15.258397) " cx="35.9837286" cy="15.2583969" rx="5.99389491" ry="5.98543819"></ellipse>
        </g>
        <path d="M37.6375653,54.7393344 C32.0231191,65.2114965 28.09658,71.039648 25.857948,72.2237888 C22.5,74 16.9893052,72.200466 17.2446526,66.850233 C17.5,61.5 25.5,63 24,67" id="Path-5" stroke="#B19200" opacity="0.299999982"></path>
        <path d="M48.6543138,60.2557917 C44.9940709,68.513253 42.1335298,73.2577539 40.0726907,74.4892943 C36.9814319,76.3366049 33.4520052,74.5925875 33.6121587,71.4513478 C33.7723121,68.3101081 38.6769864,67.1963352 38.6490706,70.4293207" id="Path-5-Copy" stroke="#B19200" opacity="0.299999982" transform="translate(41.130608, 67.750164) scale(-1, 1) rotate(-60.000000) translate(-41.130608, -67.750164) "></path>
        <path d="M21.82369,0.5 C23.2152045,0.5 24.4784294,1.04630183 25.4077393,1.93523617 C26.3395251,2.82653875 26.9356931,4.06233388 26.9878382,5.43667226 L26.9878382,5.43667226 L27.0281087,6.49804487 L27.8204554,5.79071161 C28.4963635,5.18732384 29.2590637,4.8337031 30.1075168,4.8337031 C30.9329565,4.8337031 31.680386,5.16604045 32.2213676,5.70377042 C32.7612549,6.24041269 33.0954438,6.98170465 33.0954438,7.80066558 C33.0954438,8.1752491 33.0256784,8.53363911 32.8981226,8.86359451 C32.8376302,9.0200736 32.7632184,9.17254222 32.6748996,9.31919614 C32.8389823,9.36735143 33.0001374,9.42724347 33.1569706,9.49878716 C33.6292283,9.71422029 34.0473875,10.0285021 34.3847378,10.4144044 C35.4966965,10.2070435 36.0517553,10.0341468 36.64738,10.0341468 C37.4728197,10.0341468 38.2202492,10.3664842 38.7612308,10.9042141 C39.3011182,11.4408564 39.6353071,12.1821484 39.6353071,13.0011093 C39.6353071,13.8200702 39.3011182,14.5613622 38.7612308,15.0980045 C38.2202492,15.6357344 37.4728197,15.9680718 36.64738,15.9680718 C35.9581647,15.9680718 35.3233097,15.7364642 34.8176506,15.3468999 C33.5110862,16.0136846 32.6177861,16.4014421 31.6334849,16.4014421 C31.2097598,16.4014421 30.8028911,16.3297079 30.4245953,16.1975497 C29.2905141,17.4762822 28.4861201,18.3439124 27.5006636,18.9475898 C26.5471245,19.531715 25.4239188,19.8684046 24.2216399,19.8684046 C23.0520955,19.8684046 21.9573761,19.5498112 21.0208125,18.9947782 C20.0517428,18.4204814 19.2518713,17.5933619 18.7136074,16.6048512 C18.0872742,16.4205351 17.8113415,16.4021562 17.5913898,16.4011498 L17.4637812,16.4014421 C16.0365958,16.4014421 14.7443659,15.8267587 13.8089262,14.8971723 C13.6363289,14.725655 13.4757374,14.5419156 13.3285952,14.3475953 C13.2554539,14.5719395 13.1557743,14.7874124 13.0312034,14.9888958 C12.5068023,15.8370729 11.5634921,16.4014421 10.4879271,16.4014421 C9.66248736,16.4014421 8.91505784,16.0691047 8.37407623,15.5313748 C7.83418891,14.9947325 7.5,14.2534405 7.5,13.4344796 C7.5,12.6155187 7.83418891,11.8742267 8.37407623,11.3375844 C8.91505784,10.7998545 9.66248736,10.4675171 10.4879271,10.4675171 C10.9147369,10.4675171 11.3207138,10.5562197 11.6880531,10.7164129 C11.903134,10.8102077 12.1092675,10.9303855 12.3014566,11.0764661 C12.3098606,10.834086 12.3357425,10.5905127 12.379878,10.3474142 C12.5618397,9.34516854 13.0371028,8.44442983 13.7136849,7.73553524 C14.3938085,7.02292992 15.2774331,6.50398917 16.2721324,6.27085519 C16.6570233,4.30078799 17.2280758,2.98373497 18.1571373,2.03525915 C19.0926582,1.08018894 20.3900917,0.5 21.82369,0.5 Z" id="Combined-Shape" stroke="#B19200" opacity="0.299999982"></path>
    </g>
</svg>