<svg width="120" height="120" viewBox="0 0 120 120" fill="none" xmlns="http://www.w3.org/2000/svg">
<path d="M60 101C85.9574 101 107 97.6421 107 93.5C107 89.3579 85.9574 86 60 86C34.0426 86 13 89.3579 13 93.5C13 97.6421 34.0426 101 60 101Z" fill="#F8F8F8"/>
<path d="M79.5003 47.0001C98.016 47.1583 102.106 49.27 103.756 50.3389C103.918 50.4435 104.059 50.5824 104.164 50.744C104.51 51.2811 105.042 52.5555 102.077 54.0228C101.525 54.296 101.293 54.9721 101.647 55.4758C103.74 58.4509 108.456 64.1324 109 67.5C109.445 70.2528 111.055 78.6182 107.052 82.0289C104.655 84.0711 101.309 84.8905 98.439 86.1858C96.6351 87 95.5005 87.0001 95.5003 87.0001C95.5003 87.0001 95.5003 87.0001 95.5003 87.0001L59.5004 87H34.2504H21.6652C21.6387 87 21.6152 86.9993 21.5888 86.9969C20.931 86.9382 11.6143 86.021 10.0004 81C9.60739 79.7775 10.0025 77.0743 10 75.5001C9.99395 71.6811 10.4819 71.5054 12.3914 68.1899C12.4626 68.0664 12.5599 67.9567 12.6762 67.8741C14.4599 66.6076 16.8716 65.2127 19.6503 63.7691C22.8985 62.0816 26.2187 60.4926 30.5 58.5482C39.2725 54.5643 49.5835 50.4614 53.9283 49.1639C54.3112 49.0495 54.6829 48.929 55.0675 48.8204C56.8939 48.3044 63.4618 46.8631 79.5003 47.0001Z" fill="#EEEEEE" stroke="#363636"/>
<path opacity="0.1" fill-rule="evenodd" clip-rule="evenodd" d="M59.0255 47.9836C57.0959 48.2367 56.1974 48.4502 56.0294 48.4924C56.0101 48.4973 55.9952 48.5012 55.9771 48.506L55.969 48.5081C50.2164 50.027 32.1364 57.8128 20.214 63.766C17.323 65.2096 14.8141 66.6045 12.9592 67.8707C12.841 67.9514 12.7413 68.0597 12.6677 68.1825C12.3817 68.6598 12.1264 69.072 11.8988 69.4393C10.5463 71.6226 10.1753 72.2215 10.1807 75.4884C10.1816 75.9907 10.1402 76.608 10.0969 77.2554C10.0045 78.6356 9.90299 80.1528 10.1811 80.9844C11.8611 86.0075 21.5681 86.9204 22.2318 86.9771C22.2573 86.9792 22.2803 86.98 22.3059 86.98H35.3937H61.6459H96.7757C96.9234 86.98 97.0678 86.948 97.2012 86.8846C97.7806 86.6095 99.6464 85.7205 103.249 83.9785L77.6323 83.9785H50.3704H36.7791C36.7526 83.9785 36.7287 83.9776 36.7024 83.9753C36.014 83.9144 25.9328 82.9332 24.1881 77.5331C23.7638 76.2199 23.8833 73.9121 24.1877 71.625C24.2089 71.4659 24.2295 71.3095 24.2498 71.1555C24.649 68.125 24.9236 66.0413 26.8873 63.5683C28.4998 61.5376 30.256 60.8315 32.3223 60.0008C33.0437 59.7107 33.8029 59.4055 34.6069 59.0234C41.7518 55.3302 51.1802 51.1621 59.0255 47.9836Z" fill="#363636"/>
<path d="M10 80H109L107.341 81H10.547L10 80Z" fill="#363636"/>
<path d="M87 95C92.5228 95 97 90.5228 97 85C97 79.4772 92.5228 75 87 75C81.4772 75 77 79.4772 77 85C77 90.5228 81.4772 95 87 95Z" fill="#F8F8F8" stroke="#363636"/>
<path d="M87 92C90.866 92 94 88.866 94 85C94 81.134 90.866 78 87 78C83.134 78 80 81.134 80 85C80 88.866 83.134 92 87 92Z" stroke="#363636"/>
<path opacity="0.1" fill-rule="evenodd" clip-rule="evenodd" d="M82.5 83C82.5 87.1421 85.8579 90.5 90 90.5C90.89 90.5 91.7439 90.345 92.536 90.0604C91.1642 91.5597 89.1919 92.5 87 92.5C82.8579 92.5 79.5 89.1421 79.5 85C79.5 81.7479 81.5698 78.9793 84.464 77.9396C83.2444 79.2734 82.5 81.0498 82.5 83Z" fill="#363636"/>
<path d="M34 95C39.5228 95 44 90.5228 44 85C44 79.4772 39.5228 75 34 75C28.4772 75 24 79.4772 24 85C24 90.5228 28.4772 95 34 95Z" fill="#F8F8F8" stroke="#363636"/>
<path d="M34 92C37.866 92 41 88.866 41 85C41 81.134 37.866 78 34 78C30.134 78 27 81.134 27 85C27 88.866 30.134 92 34 92Z" stroke="#363636"/>
<path opacity="0.1" fill-rule="evenodd" clip-rule="evenodd" d="M29.5 83C29.5 87.1421 32.8579 90.5 37 90.5C37.89 90.5 38.7439 90.345 39.536 90.0604C38.1642 91.5597 36.1919 92.5 34 92.5C29.8579 92.5 26.5 89.1421 26.5 85C26.5 81.7479 28.5698 78.9793 31.464 77.9396C30.2444 79.2734 29.5 81.0498 29.5 83Z" fill="#363636"/>
<path d="M93.2898 53.6952L84.8244 63.4304C84.7355 63.5327 84.627 63.5877 84.5056 63.5987C81.665 63.8564 63.877 65.4522 52.4114 66.0621C52.1338 66.0769 51.8589 66.0917 51.5867 66.1063C47.3397 66.3348 43.7425 66.5283 40.5092 66.0664C40.2045 66.0229 39.7614 65.7992 39.2605 65.4015C38.7739 65.015 38.2868 64.5075 37.8962 63.9804C37.5003 63.4462 37.2316 62.9297 37.1391 62.5274C37.0933 62.3285 37.0983 62.1903 37.1227 62.1025C37.1432 62.0289 37.1803 61.9752 37.2576 61.9287C39.7185 60.452 44.5939 58.3206 49.1874 56.4636C53.7422 54.6223 56.6177 53.8038 61.5806 52.9935C67.6937 51.9953 70.5495 51.9967 76.4712 51.9997C76.8041 51.9999 77.1466 52.0001 77.5 52.0001C82.3907 52.0001 89.5619 52.5794 92.9694 52.8817C93.3644 52.9167 93.5597 53.3848 93.2898 53.6952Z" fill="white" stroke="#363636"/>
<rect x="82.9385" y="52.5614" width="1" height="11" fill="#363636"/>
<path d="M60.9385 53.5614L61.9385 53V65.5614H60.9385V53.5614Z" fill="#363636"/>
<path d="M99.342 59.934L101.576 55.4652C101.828 55.8156 102.16 56.278 102.532 56.7927C103.345 57.918 104.347 59.2961 105.1 60.3C106.584 62.2788 107.443 63.7534 107.928 64.7236C108.051 64.9697 108.15 65.1834 108.229 65.3646L106.294 65.0421C106.224 65.0305 106.158 65.0042 106.099 64.9649L99.5119 60.5737C99.3021 60.4338 99.2292 60.1596 99.342 59.934Z" fill="white" stroke="#363636"/>
<path d="M14 67C19 64 21.5 63 21.5 63L18.2855 69.0272C17.7662 70.0008 17.0724 70.8705 16.2387 71.5932L10 77V74.0221C10 74.0074 10.0003 73.9928 10.0011 73.9781C10.0119 73.7645 10.1097 72.042 10.5 71C10.9207 69.8767 12.0759 68.4902 12.409 68.1041C12.4694 68.0341 12.5394 67.9751 12.6171 67.9252C12.8487 67.7765 13.3953 67.4214 14 67Z" fill="white" stroke="#363636"/>
</svg>
