<svg width="1200" height="440" viewBox="0 0 1200 440" fill="none" xmlns="http://www.w3.org/2000/svg">
<path d="M0 12C0 5.37257 5.37258 0 12 0H1188C1194.63 0 1200 5.37258 1200 12V428C1200 434.627 1194.63 440 1188 440H12C5.37257 440 0 434.627 0 428V12Z" fill="#F8F8F8"/>
<path fill-rule="evenodd" clip-rule="evenodd" d="M572 194.625C572 193.175 573.175 192 574.625 192H623.125C624.575 192 625.75 193.175 625.75 194.625V243.125C625.75 244.575 624.575 245.75 623.125 245.75H574.625C573.175 245.75 572 244.575 572 243.125V194.625ZM620.5 197.25V220.654L610.47 213.453C609.674 212.84 608.694 212.512 607.688 212.521C606.654 212.531 605.655 212.897 604.86 213.559C604.824 213.588 604.789 213.619 604.755 213.651L577.25 239.108V197.25H620.5ZM620.5 240.5H583.475L607.792 217.993L620.5 227.117V240.5ZM588.615 199.462C586.188 199.462 583.859 200.426 582.143 202.143C580.426 203.859 579.462 206.188 579.462 208.615C579.462 211.043 580.426 213.371 582.143 215.088C583.859 216.805 586.188 217.769 588.615 217.769C591.043 217.769 593.371 216.805 595.088 215.088C596.805 213.371 597.769 211.043 597.769 208.615C597.769 206.188 596.805 203.859 595.088 202.143C593.371 200.426 591.043 199.462 588.615 199.462ZM585.855 205.855C586.587 205.123 587.58 204.712 588.615 204.712C589.651 204.712 590.644 205.123 591.376 205.855C592.108 206.587 592.519 207.58 592.519 208.615C592.519 209.651 592.108 210.644 591.376 211.376C590.644 212.108 589.651 212.519 588.615 212.519C587.58 212.519 586.587 212.108 585.855 211.376C585.123 210.644 584.712 209.651 584.712 208.615C584.712 207.58 585.123 206.587 585.855 205.855Z" fill="#DCDCDC"/>
</svg>
